D:\school\WTK\thesis\model\3dpredictsim\Results\debug_batch\Pog_s1_tmt_aCst_d00_k1000_ig24_act_TTC_GRF.mot
nRows=25
nColumns=19

name D:\school\WTK\thesis\model\3dpredictsim\Results\debug_batch\Pog_s1_tmt_aCst_d00_k1000_ig24_act_TTC_GRF.mot
datacolumns 19
datarows 25
range 0.6487807813 0.9601955563
endheader
time 	ground_force_vx	ground_force_vy	ground_force_vz	ground_force_px	ground_force_py	ground_force_pz	1_ground_force_vx	1_ground_force_vy	1_ground_force_vz	1_ground_force_px	1_ground_force_py	1_ground_force_pz	ground_torque_x	ground_torque_y	ground_torque_z	1_ground_torque_x	1_ground_torque_y	1_ground_torque_z
        0.6487807813	      116.0160758610	      425.5509458519	        1.4030000477	        0.4432733160	        0.0000000000	        0.0334209343	      -29.8180936499	       24.1507504529	       -8.1518752871	        1.0335273738	        0.0000000000	       -0.0500105983	        0.0000000000	        0.0000000000	        0.0000000000	        0.0000000000	        0.0000000000	        0.0000000000	
        0.6617563969	       77.8276976939	      321.3300145822	        6.5714775877	        0.4515426309	        0.0000000000	        0.0301617110	     -111.1211121978	      115.8292685128	      -43.3227736434	        1.0411736571	        0.0000000000	       -0.0480362927	        0.0000000000	        0.0000000000	        0.0000000000	        0.0000000000	        0.0000000000	        0.0000000000	
        0.6747320125	       39.7439191453	      207.4158375854	       13.2659995663	        0.4665481787	        0.0000000000	        0.0237819386	      -69.4129158775	      335.8484737089	      -11.2109258781	        1.0463156146	        0.0000000000	       -0.0460366778	        0.0000000000	        0.0000000000	        0.0000000000	        0.0000000000	        0.0000000000	        0.0000000000	
        0.6877076282	       25.6957629647	      158.6457767136	       12.3585838908	        0.4705601611	        0.0000000000	        0.0217734681	      -80.1875129335	      568.2831511580	        8.8824252478	        1.0490859997	        0.0000000000	       -0.0458615279	        0.0000000000	        0.0000000000	        0.0000000000	        0.0000000000	        0.0000000000	        0.0000000000	
        0.7006832438	       18.8789422502	      107.2136033133	       13.2396835025	        0.4709916239	        0.0000000000	        0.0220284541	     -133.9138037759	      783.7740426942	       16.2573988635	        1.0573641949	        0.0000000000	       -0.0476749387	        0.0000000000	        0.0000000000	        0.0000000000	        0.0000000000	        0.0000000000	        0.0000000000	
        0.7136588594	        2.3384843369	       43.3840507681	       10.0126791421	        0.4705863932	        0.0000000000	        0.0224967168	     -170.1979415599	      915.0667572427	       21.6463099316	        1.0660327625	        0.0000000000	       -0.0496378048	        0.0000000000	        0.0000000000	        0.0000000000	        0.0000000000	        0.0000000000	        0.0000000000	
        0.7266344750	        0.2121139259	       -0.2133184287	       -0.0047249271	        0.0000000000	        0.0000000000	        0.0000000000	     -172.2278881588	      925.2631508477	       20.0322443327	        1.0716178144	        0.0000000000	       -0.0507667864	        0.0000000000	        0.0000000000	        0.0000000000	        0.0000000000	        0.0000000000	        0.0000000000	
        0.7396100907	        0.0009492960	       -0.0007592405	        0.0000636614	        0.0000000000	        0.0000000000	        0.0000000000	     -152.8422934861	      876.0927309537	       19.1387416122	        1.0755951281	        0.0000000000	       -0.0513937834	        0.0000000000	        0.0000000000	        0.0000000000	        0.0000000000	        0.0000000000	        0.0000000000	
        0.7525857063	        0.0023492636	       -0.0016063055	        0.0001872624	        0.0000000000	        0.0000000000	        0.0000000000	     -131.5718347561	      810.4514164886	       17.5089398434	        1.0790934039	        0.0000000000	       -0.0517496751	        0.0000000000	        0.0000000000	        0.0000000000	        0.0000000000	        0.0000000000	        0.0000000000	
        0.7655613219	        0.0349687761	       -0.0212830590	        0.0028787541	        0.0000000000	        0.0000000000	        0.0000000000	     -114.6712637289	      757.6678351337	       16.6874408545	        1.0827082964	        0.0000000000	       -0.0518489522	        0.0000000000	        0.0000000000	        0.0000000000	        0.0000000000	        0.0000000000	        0.0000000000	
        0.7785369375	       -0.2025701229	        0.1130030275	       -0.0167183405	        0.0000000000	        0.0000000000	        0.0000000000	      -99.9858402076	      716.7396410430	       16.5768866736	        1.0864646322	        0.0000000000	       -0.0518183304	        0.0000000000	        0.0000000000	        0.0000000000	        0.0000000000	        0.0000000000	        0.0000000000	
        0.7915125532	       -0.1276137305	        0.0665090466	       -0.0107161749	        0.0000000000	        0.0000000000	        0.0000000000	      -88.4804505460	      687.0725387150	       17.2817984847	        1.0908039757	        0.0000000000	       -0.0516333404	        0.0000000000	        0.0000000000	        0.0000000000	        0.0000000000	        0.0000000000	        0.0000000000	
        0.8044881688	       -0.0781760937	        0.0388499575	       -0.0062759166	        0.0000000000	        0.0000000000	        0.0000000000	      -78.0646199482	      663.7885702314	       18.0148845624	        1.0954583999	        0.0000000000	       -0.0513585155	        0.0000000000	        0.0000000000	        0.0000000000	        0.0000000000	        0.0000000000	        0.0000000000	
        0.8174637844	       -0.0594023822	        0.0283402046	       -0.0046902991	        0.0000000000	        0.0000000000	        0.0000000000	      -68.2430618730	      642.6262868090	       18.8951960021	        1.0999675457	        0.0000000000	       -0.0511267522	        0.0000000000	        0.0000000000	        0.0000000000	        0.0000000000	        0.0000000000	        0.0000000000	
        0.8304394000	       -0.0580920036	        0.0268004844	       -0.0045455315	        0.0000000000	        0.0000000000	        0.0000000000	      -59.0905657319	      624.2362069024	       19.3811961449	        1.1042392397	        0.0000000000	       -0.0509877461	        0.0000000000	        0.0000000000	        0.0000000000	        0.0000000000	        0.0000000000	        0.0000000000	
        0.8434150157	       -0.0700791565	        0.0314435662	       -0.0054278939	        0.0000000000	        0.0000000000	        0.0000000000	      -50.7508116704	      608.5092993673	       19.8197966588	        1.1083511684	        0.0000000000	       -0.0509188389	        0.0000000000	        0.0000000000	        0.0000000000	        0.0000000000	        0.0000000000	        0.0000000000	
        0.8563906313	       -0.0987717344	        0.0432666509	       -0.0075674372	        0.0000000000	        0.0000000000	        0.0000000000	      -43.4439208702	      596.1097534132	       19.9718633014	        1.1123866196	        0.0000000000	       -0.0508944622	        0.0000000000	        0.0000000000	        0.0000000000	        0.0000000000	        0.0000000000	        0.0000000000	
        0.8693662469	       -0.1563783496	        0.0669982066	       -0.0118564805	        0.0000000000	        0.0000000000	        0.0000000000	      -37.4200395887	      587.5730069900	       19.7984392857	        1.1164040613	        0.0000000000	       -0.0508898086	        0.0000000000	        0.0000000000	        0.0000000000	        0.0000000000	        0.0000000000	        0.0000000000	
        0.8823418626	       -0.2653254753	        0.1113572037	       -0.0197314669	        0.0000000000	        0.0000000000	        0.0000000000	      -32.2208272672	      581.9652845408	       19.3454145612	        1.1204208112	        0.0000000000	       -0.0508864408	        0.0000000000	        0.0000000000	        0.0000000000	        0.0000000000	        0.0000000000	        0.0000000000	
        0.8953174782	       -0.4555176525	        0.1876784543	       -0.0327387551	        0.0000000000	        0.0000000000	        0.0000000000	      -27.5568254849	      578.4122243923	       18.7429622316	        1.1244758725	        0.0000000000	       -0.0508654673	        0.0000000000	        0.0000000000	        0.0000000000	        0.0000000000	        0.0000000000	        0.0000000000	
        0.9082930938	       -0.7478772729	        0.3032424753	       -0.0512138631	        0.0000000000	        0.0000000000	        0.0000000000	      -22.6003484688	      576.3025336717	       18.6287112748	        1.1288525795	        0.0000000000	       -0.0507802529	        0.0000000000	        0.0000000000	        0.0000000000	        0.0000000000	        0.0000000000	        0.0000000000	
        0.9212687094	       -1.1258878066	        0.4504639374	       -0.0729345967	        0.0000000000	        0.0000000000	        0.0000000000	      -18.2203973030	      574.4464202975	       19.0015064442	        1.1335818872	        0.0000000000	       -0.0506117016	        0.0000000000	        0.0000000000	        0.0000000000	        0.0000000000	        0.0000000000	        0.0000000000	
        0.9342443251	       -1.5156299363	        0.5999997378	       -0.0927613545	        0.0000000000	        0.0000000000	        0.0000000000	      -14.3425542614	      572.3561028103	       19.2538818200	        1.1384061448	        0.0000000000	       -0.0503969460	        0.0000000000	        0.0000000000	        0.0000000000	        0.0000000000	        0.0000000000	        0.0000000000	
        0.9472199407	       -1.8091185019	        0.7104649286	       -0.1045215444	        0.0000000000	        0.0000000000	        0.0000000000	      -10.0951376246	      570.3679573711	       19.4529104223	        1.1434468898	        0.0000000000	       -0.0501324270	        0.0000000000	        0.0000000000	        0.0000000000	        0.0000000000	        0.0000000000	        0.0000000000	
        0.9601955563	       -1.9343766657	        0.7551241752	       -0.1047097798	        0.0000000000	        0.0000000000	        0.0000000000	       -6.1486258288	      567.7934451943	       19.4290278276	        1.1486915163	        0.0000000000	       -0.0498165257	        0.0000000000	        0.0000000000	        0.0000000000	        0.0000000000	        0.0000000000	        0.0000000000	
